<?xml version="1.0" encoding="UTF-8"?>
<svg width="228px" height="55px" viewBox="0 0 228 55" version="1.1" xmlns="http://www.w3.org/2000/svg" xmlns:xlink="http://www.w3.org/1999/xlink">
    <!-- Generator: Sketch 55.1 (78136) - https://sketchapp.com -->
    <title>cc.logo.white</title>
    <desc>Created with Sketch.</desc>
    <g id="Page-1" stroke="none" stroke-width="1" fill="none" fill-rule="evenodd">
        <g id="Chapter-websites" transform="translate(-266.000000, -636.000000)" fill="#3B3B3B">
            <g id="Group-3" transform="translate(0.000000, 622.000000)">
                <g id="cc.logo.white" transform="translate(266.000000, 14.000000)">
                    <path d="M70.8764661,37.3394077 C68.7595089,33.5201215 65.1486353,32 60.9569221,32 C54.8561877,32 50,36.2710706 50,43.5003797 C50,50.8519362 54.5653842,55 61.1640908,55 C65.3972378,55 69.0081114,52.7000759 71,49.2088079 L66.3517483,46.8678815 C65.313603,49.332574 63.736819,50.0721336 61.7449304,50.0721336 C58.2997917,50.0721336 56.7230078,47.2384207 56.7230078,43.501139 C56.7230078,39.7630979 58.0511893,36.929385 61.7449304,36.929385 C62.7408747,36.929385 64.7335306,37.4631739 65.8952099,39.9278664 L70.8764661,37.3394077 Z" id="path15"></path>
                    <path d="M82.4996244,36.9286257 C86.1162175,36.9286257 87.6608199,39.7623386 87.6608199,43.2536067 C87.6608199,47.2376614 86.1162175,50.0713743 82.4996244,50.0713743 C78.8830312,50.0713743 77.3391801,47.2376614 77.3391801,43.5003797 C77.3391801,39.7630979 78.8830312,36.9286257 82.4996244,36.9286257 Z M82.4996244,32 C75.7540095,32 71,36.1480638 71,43.5003797 C71,50.8519362 75.7540095,55 82.4996244,55 C89.2452393,55 94,50.8519362 94,43.5003797 C94,36.1488231 89.2452393,32 82.4996244,32 Z" id="path17"></path>
                    <path d="M96.0007527,53.9992551 L102.351829,53.9992551 L102.351829,40.6632356 C102.351829,38.7294643 103.166224,37.0772669 105.730589,37.0772669 C108.173774,37.0772669 108.824838,38.4873705 108.824838,40.5827859 L108.824838,54 L115.175914,54 L115.175914,40.8241349 C115.175914,38.6482698 116.274821,37.0772669 118.392097,37.0772669 C120.793885,37.0772669 121.648924,38.4471457 121.648924,41.4692219 L121.648924,53.9992551 L128,53.9992551 L128,37.6411593 C128,32.7255367 123.440292,32 121.323015,32 C118.798542,32 116.437399,32.7657615 114.361519,34.860432 C112.935952,32.9668856 111.104692,32 108.620863,32 C106.666918,32 103.979866,32.5638925 102.351076,34.4581838 L102.351076,32.5646374 L96,32.5646374 L96,53.9992551 L96.0007527,53.9992551 Z" id="path19"></path>
                    <path d="M130.000753,53.9992551 L136.351829,53.9992551 L136.351829,40.6632356 C136.351829,38.7294643 137.166224,37.0772669 139.730589,37.0772669 C142.173774,37.0772669 142.824838,38.4873705 142.824838,40.5827859 L142.824838,54 L149.175914,54 L149.175914,40.8241349 C149.175914,38.6482698 150.274821,37.0772669 152.391344,37.0772669 C154.793132,37.0772669 155.648924,38.4471457 155.648924,41.4692219 L155.648924,53.9992551 L162,53.9992551 L162,37.6411593 C162,32.7255367 157.439539,32 155.323015,32 C152.798542,32 150.438151,32.7657615 148.361519,34.860432 C146.936705,32.9668856 145.104692,32 142.620863,32 C140.666918,32 137.979866,32.5638925 136.351076,34.4581838 L136.351076,32.5646374 L130,32.5646374 L130,53.9992551 L130.000753,53.9992551 Z" id="path21"></path>
                    <path d="M174.5,36.9286257 C178.115724,36.9286257 179.660276,39.7623386 179.660276,43.2536067 C179.660276,47.2376614 178.115724,50.0713743 174.5,50.0713743 C170.883525,50.0713743 169.338973,47.2376614 169.338973,43.5003797 C169.338973,39.7630979 170.883525,36.9286257 174.5,36.9286257 Z M174.5,32 C167.754605,32 163,36.1480638 163,43.5003797 C163,50.8519362 167.753854,55 174.5,55 C181.245395,55 186,50.8519362 186,43.5003797 C186,36.1488231 181.245395,32 174.5,32 Z" id="path23"></path>
                    <path d="M188.000746,53.9992551 L194.293559,53.9992551 L194.293559,40.6632356 C194.293559,38.7294643 195.100483,37.0772669 197.642069,37.0772669 C200.062095,37.0772669 200.707187,38.4873705 200.707187,40.5827859 L200.707187,54 L207,54 L207,38.164827 C207,34.9416266 205.58751,32 200.505083,32 C198.569062,32 195.906661,32.5638925 194.292813,34.4581838 L194.292813,32.5646374 L188,32.5646374 L188,53.9992551 L188.000746,53.9992551 Z" id="path25"></path>
                    <path d="M227.801072,35.1624905 C224.920688,33.191344 221.681642,32 218.401183,32 C214.080237,32 209.400629,34.135915 209.400629,39.6393318 C209.400629,47.4016705 222.00037,44.6909643 222.00037,48.1002278 C222.00037,50.0721336 219.641339,50.3181473 218.600111,50.3181473 C215.760399,50.3181473 213.800703,49.1275626 211.8802,47.2376614 L208,50.6871678 C211.120725,53.6446469 213.76003,55 218.400444,55 C223.039379,55 228,52.9460896 228,47.1966591 C228,39.0235383 215.400259,42.1040243 215.400259,38.3667426 C215.400259,37.2581625 216.519874,36.6833713 218.079497,36.6833713 C220.039933,36.6833713 222.719911,37.5049355 223.959327,39.0242976 L227.801072,35.1624905 Z" id="path27"></path>
                    <path d="M70.8764661,12.3394077 C68.7595089,8.52012149 65.1486353,7 60.9569221,7 C54.8561877,7 50,11.2710706 50,18.4996203 C50,25.8511769 54.5653842,30 61.1640908,30 C65.3972378,30 69.0081114,27.7000759 71,24.2088079 L66.3517483,21.8678815 C65.313603,24.332574 63.736819,25.0713743 61.7449304,25.0713743 C58.2997917,25.0713743 56.7230078,22.2376614 56.7230078,18.4996203 C56.7230078,14.7623386 58.0511893,11.9286257 61.7449304,11.9286257 C62.7408747,11.9286257 64.7335306,12.4624146 65.8952099,14.9271071 L70.8764661,12.3394077 Z" id="path29"></path>
                    <path d="M73,29 L79.1782903,29 L79.1782903,16.3106218 C79.1782903,13.8801413 80.6434194,13.2205373 84.3271096,12.7673452 L85,12.6850852 L84.9604613,7 C82.782171,7.16528182 80.5248032,7.98864423 79.1782903,9.30709043 L79.1782903,7.08226007 L73,7.08226007 L73,29 Z" id="path31"></path>
                    <path d="M106,19.8139711 C105.959839,13.078208 103.304717,7 95.5,7 C88.9826817,7 85,11.435839 85,19.1571754 C85,25.317388 88.8621972,30 95.5,30 C100.287399,30 103.706332,28.0698557 105.878772,23.9627942 L101.171696,21.4570995 C99.3614535,24.0858011 98.2748619,25.317388 95.9417765,25.317388 C93.9307267,25.317388 91.3157671,24.0030372 91.2756056,19.8139711 L106,19.8139711 L106,19.8139711 Z M91.1960263,15.8716781 C91.4771568,12.9962035 93.6495963,11.682612 95.4598385,11.682612 C97.2700807,11.682612 99.5228432,12.6681853 99.7236507,15.8716781 L91.1960263,15.8716781 Z" id="path33"></path>
                    <path d="M121.360778,20.3067578 C121.360778,23.6332574 119.498503,25.317388 117.028443,25.317388 C115.489521,25.317388 114.072605,24.5778284 114.072605,22.8534548 C114.072605,21.0873197 115.52994,20.4715262 117.109281,20.0197418 L121.360778,18.7873956 L121.360778,20.3067578 L121.360778,20.3067578 Z M127.433383,13.324981 C127.392964,8.39635535 123.708832,7 117.838323,7 C114.922904,7 109.174401,7.57479119 108.971557,13.8587699 L115.04491,13.8587699 C115.369012,11.6818527 116.33982,10.9430524 118.364521,10.9430524 C120.06512,10.9430524 121.360778,11.6408504 121.360778,13.2839787 L121.360778,15.0911162 L119.053144,15.4198937 C112.170659,16.405467 108,18.2536067 108,23.5110099 C108,27.7000759 111.077096,30 115.206587,30 C117.473802,30 120.631737,28.8914199 121.684132,27.166287 L121.76497,27.166287 C121.805389,27.9058466 121.927395,28.6856492 122.16991,29.4252088 L128,29.4252088 C127.473802,28.0698557 127.433383,26.3864844 127.433383,24.8663629 L127.433383,13.324981 L127.433383,13.324981 Z" id="path35"></path>
                    <path d="M141.880566,8.24939714 L138.194228,8.24939714 L138.194228,2 L132.011498,2 L132.011498,8.24939714 L129,8.24939714 L129,12.1445796 L132.011498,12.1445796 L132.011498,23.5075291 C132.011498,26.6322276 132.764739,30 138.036693,30 C139.384173,30 141.207192,29.8379508 142,29.756176 L142,24.7649108 C141.681998,24.8054231 140.810788,24.8864477 140.137414,24.8864477 C139.026604,24.8864477 138.194961,24.4400622 138.194961,22.7355447 L138.194961,12.1453298 L141.881299,12.1453298 L141.881299,8.24939714 L141.880566,8.24939714 Z" id="path37"></path>
                    <path d="M145,7.3313253 L145,29 L150.999289,29 L150.999289,7.3313253 L145,7.3313253 Z M151,4.8878012 L151,0 L145.000711,0 L145.000711,4.8878012 L151,4.8878012 Z" id="path39"></path>
                    <polygon id="polygon41" points="159.283012 29 165.63545 29 173 7 166.283261 7 162.560218 22.5489297 162.480177 22.5489297 158.756385 7 152 7"></polygon>
                    <path d="M194,19.8139711 C193.959836,13.078208 191.304526,7 183.5,7 C176.981476,7 173,11.435839 173,19.1571754 C173,25.317388 176.860983,30 183.5,30 C188.287738,30 191.706914,28.0698557 193.879507,23.9627942 L189.172097,21.4570995 C187.361727,24.0858011 186.275058,25.317388 183.942552,25.317388 C181.931359,25.317388 179.315471,24.0030372 179.27605,19.8139711 L194,19.8139711 L194,19.8139711 Z M179.194978,15.8716781 C179.476872,12.9962035 181.648721,11.682612 183.459092,11.682612 C185.269462,11.682612 187.523128,12.6681853 187.72395,15.8716781 L179.194978,15.8716781 Z" id="path43"></path>
                    <g id="g45" transform="translate(-0.000000, 6.000000)">
                        <path d="M23.7015,0.37125 C17.19,0.37125 11.46,2.781 7.032,7.2735 C2.47425,11.89725 0,17.8875 0,24.13875 C0,30.4545 2.409,36.315 6.9675,40.8735 C11.52525,45.43125 17.451,47.9055 23.7015,47.9055 C29.952,47.9055 36.00825,45.43125 40.6965,40.80825 C45.1245,36.4455 47.46825,30.65025 47.46825,24.13875 C47.46825,17.6925 45.1245,11.832 40.63125,7.33875 C36.0735,2.781 30.213,0.37125 23.7015,0.37125 Z M23.76675,4.6695 C29.106,4.6695 33.8595,6.68775 37.57125,10.3995 C41.217,14.046 43.17075,18.86475 43.17075,24.13875 C43.17075,29.478 41.28225,34.16625 37.63575,37.74825 C33.7935,41.5245 28.845,43.5435 23.766,43.5435 C18.62175,43.5435 13.803,41.52525 10.092,37.8135 C6.38025,34.101 4.29675,29.21775 4.29675,24.13875 C4.29675,18.9945 6.38025,14.11125 10.092,10.33425 C13.7385,6.62325 18.4275,4.6695 23.76675,4.6695 Z" id="path47"></path>
                        <path d="M23.46,20.18925 C22.1175,17.74125 19.827,16.767 17.16825,16.767 C13.29825,16.767 10.218,19.5045 10.218,24.13875 C10.218,28.851 13.11375,31.5105 17.30025,31.5105 C19.986,31.5105 22.27575,30.036 23.5395,27.79875 L20.5905,26.298 C19.932,27.8775 18.93225,28.3515 17.6685,28.3515 C15.483,28.3515 14.48325,26.535 14.48325,24.1395 C14.48325,21.744 15.3255,19.92675 17.6685,19.92675 C18.3,19.92675 19.56375,20.2695 20.301,21.84825 L23.46,20.18925 Z" id="path49"></path>
                        <path d="M37.1715,20.18925 C35.82825,17.74125 33.5385,16.767 30.87975,16.767 C27.00975,16.767 23.92875,19.5045 23.92875,24.13875 C23.92875,28.851 26.82525,31.5105 31.011,31.5105 C33.69675,31.5105 35.9865,30.036 37.25025,27.79875 L34.30125,26.298 C33.6435,27.8775 32.643,28.3515 31.37925,28.3515 C29.1945,28.3515 28.19325,26.535 28.19325,24.1395 C28.19325,21.744 29.03625,19.92675 31.37925,19.92675 C32.01075,19.92675 33.2745,20.2695 34.0125,21.84825 L37.1715,20.18925 Z" id="path51"></path>
                    </g>
                </g>
            </g>
        </g>
    </g>
</svg>