<?xml version="1.0" encoding="UTF-8"?>
<svg width="190px" height="46px" viewBox="0 0 190 46" version="1.1" xmlns="http://www.w3.org/2000/svg" xmlns:xlink="http://www.w3.org/1999/xlink">
    <!-- Generator: Sketch 59.1 (86144) - https://sketch.com -->
    <title>cc.logo.white</title>
    <desc>Created with Sketch.</desc>
    <g id="Page-1" stroke="none" stroke-width="1" fill="none" fill-rule="evenodd">
        <g id="Artboard" transform="translate(-221.000000, -17.000000)" fill="#FFFFFF">
            <g id="cc.logo.white" transform="translate(221.000000, 17.000000)">
                <path d="M59.5863838,31.4108151 C57.881629,28.2557525 54.9738449,27 51.5983192,27 C46.6854864,27 42.7748691,30.5282757 42.7748691,36.5003136 C42.7748691,42.5733386 46.4513066,46 51.7651491,46 C55.1740409,46 58.0818249,44.1000627 59.6858639,41.2159717 L55.9426944,39.282163 C55.106691,41.3182133 53.8369298,41.9291539 52.2328908,41.9291539 C49.4585708,41.9291539 48.1888096,39.5882605 48.1888096,36.5009409 C48.1888096,33.412994 49.2583748,31.0721006 52.2328908,31.0721006 C53.0349103,31.0721006 54.6395672,31.5130567 55.5750506,33.549107 L59.5863838,31.4108151 Z" id="path15"></path>
                <path d="M69.135817,31.0714734 C72.1077954,31.0714734 73.3770908,33.4123667 73.3770908,36.2964577 C73.3770908,39.5876333 72.1077954,41.9285266 69.135817,41.9285266 C66.1638385,41.9285266 64.8951606,39.5876333 64.8951606,36.5003136 C64.8951606,33.412994 66.1638385,31.0714734 69.135817,31.0714734 Z M69.135817,27 C63.5925277,27 59.6858639,30.4266614 59.6858639,36.5003136 C59.6858639,42.5733386 63.5925277,46 69.135817,46 C74.6791062,46 78.5863874,42.5733386 78.5863874,36.5003136 C78.5863874,30.4272886 74.6791062,27 69.135817,27 Z" id="path17"></path>
                <path d="M79.5817836,44.9993905 L84.9124479,44.9993905 L84.9124479,34.0881018 C84.9124479,32.5059254 85.595996,31.1541274 87.7483512,31.1541274 C89.7989955,31.1541274 90.3454549,32.3078486 90.3454549,34.0222794 L90.3454549,45 L95.6761192,45 L95.6761192,34.2197467 C95.6761192,32.4394935 96.5984669,31.1541274 98.3755656,31.1541274 C100.391464,31.1541274 101.109126,32.2749374 101.109126,34.7475452 L101.109126,44.9993905 L106.439791,44.9993905 L106.439791,31.615494 C106.439791,27.5936209 102.612679,27 100.835581,27 C98.7167079,27 96.7349239,27.6265321 94.9925711,29.3403535 C93.7960461,27.7910882 92.2590105,27 90.174252,27 C88.534242,27 86.2789123,27.4613666 84.9118162,29.0112413 L84.9118162,27.461976 L79.5811518,27.461976 L79.5811518,44.9993905 L79.5817836,44.9993905 Z" id="path19"></path>
                <path d="M107.435187,44.9993905 L112.765851,44.9993905 L112.765851,34.0881018 C112.765851,32.5059254 113.449399,31.1541274 115.601754,31.1541274 C117.652399,31.1541274 118.198858,32.3078486 118.198858,34.0222794 L118.198858,45 L123.529522,45 L123.529522,34.2197467 C123.529522,32.4394935 124.45187,31.1541274 126.228337,31.1541274 C128.244235,31.1541274 128.962529,32.2749374 128.962529,34.7475452 L128.962529,44.9993905 L134.293194,44.9993905 L134.293194,31.615494 C134.293194,27.5936209 130.465451,27 128.688984,27 C126.570111,27 124.588959,27.6265321 122.845974,29.3403535 C121.650081,27.7910882 120.112414,27 118.027655,27 C116.387645,27 114.132315,27.4613666 112.765219,29.0112413 L112.765219,27.461976 L107.434555,27.461976 L107.434555,44.9993905 L107.435187,44.9993905 Z" id="path21"></path>
                <path d="M144.73822,31.0714734 C147.709484,31.0714734 148.978738,33.4123667 148.978738,36.2964577 C148.978738,39.5876333 147.709484,41.9285266 144.73822,41.9285266 C141.766339,41.9285266 140.497085,39.5876333 140.497085,36.5003136 C140.497085,33.412994 141.766339,31.0714734 144.73822,31.0714734 Z M144.73822,27 C139.195112,27 135.287958,30.4266614 135.287958,36.5003136 C135.287958,42.5733386 139.194494,46 144.73822,46 C150.281328,46 154.188482,42.5733386 154.188482,36.5003136 C154.188482,30.4272886 150.281328,27 144.73822,27 Z" id="path23"></path>
                <path d="M155.18391,44.9993905 L160.784843,44.9993905 L160.784843,34.0881018 C160.784843,32.5059254 161.503048,31.1541274 163.765193,31.1541274 C165.919142,31.1541274 166.493308,32.3078486 166.493308,34.0222794 L166.493308,45 L172.094241,45 L172.094241,32.0439493 C172.094241,29.4067854 170.837051,27 166.313425,27 C164.590265,27 162.220588,27.4613666 160.784179,29.0112413 L160.784179,27.461976 L155.183246,27.461976 L155.183246,44.9993905 L155.18391,44.9993905 Z" id="path25"></path>
                <path d="M189.831797,29.6124922 C187.396288,27.9841537 184.657514,27 181.883723,27 C178.230148,27 174.273306,28.7644515 174.273306,33.3107524 C174.273306,39.7231191 184.927014,37.4838401 184.927014,40.3001882 C184.927014,41.9291539 182.932336,42.1323826 182.051926,42.1323826 C179.650809,42.1323826 177.993788,41.1488561 176.369907,39.5876333 L173.089005,42.4372256 C175.727733,44.8803605 177.959397,46 181.883098,46 C185.805548,46 190,44.3032914 190,39.5537618 C190,32.8020534 179.346292,35.3468027 179.346292,32.259483 C179.346292,31.3436994 180.292983,30.8688719 181.611721,30.8688719 C183.269368,30.8688719 185.535422,31.5475554 186.58341,32.8026807 L189.831797,29.6124922 Z" id="path27"></path>
                <path d="M59.5863838,9.41081509 C57.881629,6.25575253 54.9738449,5 51.5983192,5 C46.6854864,5 42.7748691,8.52827573 42.7748691,14.4996864 C42.7748691,20.5727114 46.4513066,24 51.7651491,24 C55.1740409,24 58.0818249,22.1000627 59.6858639,19.2159717 L55.9426944,17.282163 C55.106691,19.3182133 53.8369298,19.9285266 52.2328908,19.9285266 C49.4585708,19.9285266 48.1888096,17.5876333 48.1888096,14.4996864 C48.1888096,11.4123667 49.2583748,9.07147337 52.2328908,9.07147337 C53.0349103,9.07147337 54.6395672,9.51242943 55.5750506,11.5484797 L59.5863838,9.41081509 Z" id="path29"></path>
                <path d="M60.6806283,24 L65.8022476,24 L65.8022476,13.6177815 C65.8022476,11.6292065 67.0167962,11.0895305 70.0704661,10.718737 L70.6282723,10.6514333 L70.5954958,6 C68.7897578,6.13523058 66.9184669,6.80889074 65.8022476,7.88761944 L65.8022476,6.0673037 L60.6806283,6.0673037 L60.6806283,24 Z" id="path31"></path>
                <path d="M88.5340314,15.5854544 C88.4997875,10.0211284 86.2358847,5 79.5811518,5 C74.0241265,5 70.6282723,8.66438876 70.6282723,15.042884 C70.6282723,20.1317553 73.9213948,24 79.5811518,24 C83.6631525,24 86.5783238,22.405533 88.4306655,19.0127431 L84.4171527,16.9428213 C82.8736402,19.1143574 81.9471522,20.1317553 79.9578348,20.1317553 C78.2431028,20.1317553 76.0134439,19.0459873 75.9792,15.5854544 L88.5340314,15.5854544 L88.5340314,15.5854544 Z M75.9113463,12.3287775 C76.1510537,9.95338549 78.0033955,8.86824469 79.5469079,8.86824469 C81.0904204,8.86824469 83.01125,9.68241392 83.1824695,12.3287775 L75.9113463,12.3287775 Z" id="path33"></path>
                <path d="M100.825999,15.992539 C100.825999,18.740517 99.251352,20.1317553 97.1627935,20.1317553 C95.8615583,20.1317553 94.6634852,19.5208148 94.6634852,18.0963322 C94.6634852,16.637351 95.8957347,16.1286521 97.2311463,15.7554389 L100.825999,14.7374138 L100.825999,15.992539 L100.825999,15.992539 Z M105.960688,10.2249843 C105.926512,6.15351094 102.811395,5 97.8475875,5 C95.3824556,5 90.5218104,5.47482751 90.3502955,10.6659404 L95.4856178,10.6659404 C95.759662,8.86761744 96.5805287,8.25730415 98.2925138,8.25730415 C99.7304547,8.25730415 100.825999,8.833746 100.825999,10.1911129 L100.825999,11.6839655 L98.8747786,11.9555644 C93.0552952,12.7697336 89.5287958,14.2964577 89.5287958,18.6395299 C89.5287958,22.1000627 92.1306334,24 95.6223234,24 C97.5393669,24 100.209557,23.0842164 101.09941,21.6591067 L101.167763,21.6591067 C101.201939,22.2700472 101.305101,22.914232 101.51016,23.5251725 L106.439791,23.5251725 C105.994864,22.405533 105.960688,21.0149219 105.960688,19.7591694 L105.960688,10.2249843 L105.960688,10.2249843 Z" id="path35"></path>
                <path d="M118.276433,6.35662612 L115.173555,6.35662612 L115.173555,1 L109.969404,1 L109.969404,6.35662612 L107.434555,6.35662612 L107.434555,9.69535395 L109.969404,9.69535395 L109.969404,19.4350249 C109.969404,22.113338 110.603425,25 115.040953,25 C116.17516,25 117.709638,24.8611007 118.376963,24.791008 L118.376963,20.5127807 C118.109293,20.5475055 117.375975,20.6169551 116.809181,20.6169551 C115.874185,20.6169551 115.174172,20.234339 115.174172,18.773324 L115.174172,9.695997 L118.27705,9.695997 L118.27705,6.35662612 L118.276433,6.35662612 Z" id="path37"></path>
                <path d="M120.366492,6.0673037 L120.366492,24 L125.339725,24 L125.339725,6.0673037 L120.366492,6.0673037 Z M125.340314,4.04507686 L125.340314,0 L120.367082,0 L120.367082,4.04507686 L125.340314,4.04507686 Z" id="path39"></path>
                <polygon id="polygon41" points="132.544977 24 137.961416 24 144.240838 6 138.513776 6 135.339303 18.7218515 135.271056 18.7218515 132.095945 6 126.335079 6"></polygon>
                <path d="M162.146597,15.5854544 C162.112351,10.0211284 159.848287,5 153.193717,5 C147.635664,5 144.240838,8.66438876 144.240838,15.042884 C144.240838,20.1317553 147.532925,24 153.193717,24 C157.276007,24 160.191385,22.405533 162.043858,19.0127431 L158.030061,16.9428213 C156.486439,19.1143574 155.559885,20.1317553 153.571061,20.1317553 C151.856208,20.1317553 149.625757,19.0459873 149.592144,15.5854544 L162.146597,15.5854544 L162.146597,15.5854544 Z M149.523018,12.3287775 C149.763376,9.95338549 151.615215,8.86824469 153.158837,8.86824469 C154.702459,8.86824469 156.624058,9.68241392 156.79529,12.3287775 L149.523018,12.3287775 Z" id="path43"></path>
                <g id="g45" transform="translate(0.000000, 4.000000)">
                    <path d="M20.1390363,0.317109375 C14.60625,0.317109375 9.7375,2.3754375 5.97505236,6.21278125 C2.10235684,10.1622344 0,15.2789062 0,20.6185156 C0,26.0132187 2.04691427,31.0190625 5.92024705,34.9127812 C9.79294257,38.8058594 14.8280203,40.9192812 20.1390363,40.9192812 C25.4500524,40.9192812 30.5960152,38.8058594 34.5795959,34.8570469 C38.3420435,31.1305312 40.3335152,26.1804219 40.3335152,20.6185156 C40.3335152,15.1123437 38.3420435,10.1065 34.5241533,6.26851562 C30.6514578,2.3754375 25.6718226,0.317109375 20.1390363,0.317109375 Z M20.1944789,3.98853125 C24.7312107,3.98853125 28.770234,5.71245312 31.9240879,8.88290625 C35.0218619,11.997625 36.6819527,16.1136406 36.6819527,20.6185156 C36.6819527,25.179125 35.0773045,29.1836719 31.9788932,32.2432969 C28.7141541,35.4688437 24.5094404,37.1934062 20.1938416,37.1934062 C15.8228002,37.1934062 11.7283344,35.4694844 8.5751178,32.2990312 C5.42126391,29.1279375 3.65092523,24.9568281 3.65092523,20.6185156 C3.65092523,16.2244687 5.42126391,12.0533594 8.5751178,8.82717187 C11.6735291,5.65735937 15.6577471,3.98853125 20.1944789,3.98853125 Z" id="path47"></path>
                    <path d="M19.9338351,17.2449844 C18.7931201,15.1539844 16.8468946,14.3218125 14.5877691,14.3218125 C11.2994511,14.3218125 8.68217932,16.6600937 8.68217932,20.6185156 C8.68217932,24.6435625 11.1426824,26.9152187 14.6999288,26.9152187 C16.9819961,26.9152187 18.9275843,25.65575 20.0013858,23.7447656 L17.4956365,22.462875 C16.9361126,23.8120312 16.0866304,24.2169062 15.0128289,24.2169062 C13.1558213,24.2169062 12.3063392,22.6653125 12.3063392,20.6191562 C12.3063392,18.573 13.0219944,17.0207656 15.0128289,17.0207656 C15.549411,17.0207656 16.6232125,17.3135312 17.2496499,18.6620469 L19.9338351,17.2449844 Z" id="path49"></path>
                    <path d="M31.5844224,17.2449844 C30.4430702,15.1539844 28.497482,14.3218125 26.2383565,14.3218125 C22.9500384,14.3218125 20.3321294,16.6600937 20.3321294,20.6185156 C20.3321294,24.6435625 22.7932698,26.9152187 26.3498789,26.9152187 C28.6319462,26.9152187 30.5775344,25.65575 31.6513359,23.7447656 L29.1455866,22.462875 C28.5866999,23.8120312 27.7365805,24.2169062 26.662779,24.2169062 C24.8064087,24.2169062 23.955652,22.6653125 23.955652,20.6191562 C23.955652,18.573 24.6719445,17.0207656 26.662779,17.0207656 C27.1993611,17.0207656 28.2731626,17.3135312 28.9002372,18.6620469 L31.5844224,17.2449844 Z" id="path51"></path>
                </g>
            </g>
        </g>
    </g>
</svg>